<svg version="1.1" xmlns="http://www.w3.org/2000/svg" xmlns:xlink="http://www.w3.org/1999/xlink" width="104" height="104" viewBox="0,0,104,104"><defs><radialGradient cx="237.98182" cy="176.50372" r="69.7091" gradientUnits="userSpaceOnUse" id="color-1"><stop offset="0" stop-color="#579387"/><stop offset="1" stop-color="#000000"/></radialGradient><linearGradient x1="204.09872" y1="142.59872" x2="204.09872" y2="213.09872" gradientUnits="userSpaceOnUse" id="color-2"><stop offset="0" stop-color="#97fff2"/><stop offset="1" stop-color="#ffffff"/></linearGradient></defs><g transform="translate(-187.03222,-126.12612)"><g data-paper-data="{&quot;isPaintingLayer&quot;:true}" fill-rule="nonzero" stroke-linecap="butt" stroke-linejoin="miter" stroke-miterlimit="10" stroke-dasharray="" stroke-dashoffset="0" style="mix-blend-mode: normal"><path d="M239.03222,126.12612c14.3471,0 27.348,5.8255 36.7594,15.2407c9.4151,9.4113 15.2406,22.4123 15.2406,36.7593c0,14.3471 -5.8255,27.348 -15.2406,36.7594c-9.4114,9.4151 -22.4123,15.2406 -36.7594,15.2406c-14.347,0 -27.348,-5.8255 -36.7593,-15.2406c-9.4151,-9.4114 -15.2407,-22.4123 -15.2407,-36.7594c0,-14.347 5.8256,-27.348 15.2407,-36.7593c9.4113,-9.4152 22.4123,-15.2407 36.7593,-15.2407z" fill="url(#color-1)" stroke="none" stroke-width="3.80256"/><path d="M239.34872,142.59872c9.725,0 18.538,3.95 24.919,10.331c6.381,6.381 10.331,15.194 10.331,24.919c0,9.725 -3.95,18.538 -10.331,24.919c-6.381,6.381 -15.194,10.331 -24.919,10.331c-9.725,0 -18.538,-3.95 -24.919,-10.331c-6.381,-6.381 -10.331,-15.194 -10.331,-24.919c0,-9.725 3.95,-18.538 10.331,-24.919c6.381,-6.381 15.194,-10.331 24.919,-10.331z" fill="url(#color-2)" stroke="#3e6764" stroke-width="2"/></g></g></svg>