<svg version="1.1" xmlns="http://www.w3.org/2000/svg" xmlns:xlink="http://www.w3.org/1999/xlink" width="547" height="371" viewBox="0,0,547,371"><g transform="translate(8.54675,-40.18183)"><g data-paper-data="{&quot;isPaintingLayer&quot;:true}" fill="none" fill-rule="nonzero" stroke-width="2" stroke-linecap="butt" stroke-linejoin="miter" stroke-miterlimit="10" stroke-dasharray="" stroke-dashoffset="0" style="mix-blend-mode: normal"><path d="M21.45325,344.18183v-22h120v22z" stroke="#000000"/><path d="M162.45325,309.18183v-16h39v16z" stroke="#000000"/><path d="M200.45325,386.18183v-18h25v18z" stroke="#000000"/><path d="M251.45325,402.18183v-3h7v3z" stroke="#000000"/><path d="M271.45325,399.18183v-4h4v4z" stroke="#000000"/><path d="M286.45325,401.18183v-3h4v3z" stroke="#000000"/><path d="M310.45325,409.18183v-3h3v3z" stroke="#000000"/><path d="M340.45325,410.18183v-2h4v2z" stroke="#000000"/><path d="M381.45325,406.18183v-3h4v3z" stroke="#000000"/><path d="M408.45325,404.18183v-4h3v4z" stroke="#000000"/><path d="M434.45325,403.18183v-2h2v2z" stroke="#000000"/><path d="M463.45325,403.18183v-2h7v2z" stroke="#000000"/><path d="M490.45325,392.18183v-3h11v3z" stroke="#000000"/><path d="M517.45325,371.18183v-2h4v2z" stroke="#000000"/><path d="M532.45325,354.18183v-1h5v1z" stroke="#000000"/><path d="M502.45325,320.18183v-8h9v8z" stroke="#000000"/><path d="M422.45325,290.18183v-10h30v10z" stroke="#000000"/><path d="M363.45325,270.18183v-21h37v21z" stroke="#000000"/><path d="M436.45325,240.18183v-15h29v15z" stroke="#000000"/><path d="M387.45325,213.18183v-21h26v21z" stroke="#000000"/><path d="M328.45325,197.18183v-15h31v15z" stroke="#000000"/><path d="M267.45325,172.18183v-15h34v15z" stroke="#000000"/><path d="M197.45325,154.18183v-12h56v12z" stroke="#000000"/><path d="M104.45325,147.18183v-22h40v22z" stroke="#000000"/><path d="M49.45325,178.18183v-15h19v15z" stroke="#000000"/><path d="M-7.54675,131.18183v-18h23v18z" stroke="#000000"/><path d="M46.45325,96.18183v-20h32v20z" stroke="#000000"/><path d="M133.45325,76.18183v-19h70v19z" stroke="#000000"/><path d="M287.45325,76.18183v-35h85v35z" stroke="#000000"/><path d="M230.45325,85.18183v-8h18v8z" stroke="#000000"/><path d="M405.45325,118.18183v-19h57v19z" stroke="#000000"/><path d="M434.03222,49.12612c6.34584,0 12.09623,2.57666 16.25896,6.74108c4.16437,4.16269 6.74104,9.91313 6.74104,16.25892c0,6.34583 -2.57666,12.09623 -6.74104,16.25897c-4.16273,4.16437 -9.91313,6.74103 -16.25896,6.74103c-6.34579,0 -12.09623,-2.57666 -16.25892,-6.74103c-4.16437,-4.16273 -6.74108,-9.91313 -6.74108,-16.25897c0,-6.34579 2.57671,-12.09623 6.74108,-16.25892c4.16269,-4.16441 9.91313,-6.74108 16.25892,-6.74108z" stroke="none"/><path d="M434.17221,56.41208c4.30144,0 8.1995,1.74712 11.02186,4.56948c2.82236,2.82236 4.56948,6.72042 4.56948,11.02186c0,4.30144 -1.74712,8.1995 -4.56948,11.02187c-2.82236,2.82237 -6.72042,4.56948 -11.02186,4.56948c-4.30144,0 -8.1995,-1.74711 -11.02186,-4.56948c-2.82236,-2.82237 -4.56948,-6.72043 -4.56948,-11.02187c0,-4.30144 1.74712,-8.1995 4.56948,-11.02186c2.82236,-2.82236 6.72042,-4.56948 11.02186,-4.56948z" stroke="#3e6764"/><path d="M455.45325,316.18182v-7h25v7z" stroke="#000000"/><path d="M512.45325,341.18182v-5h10v5z" stroke="#000000"/></g></g></svg>