<svg version="1.1" xmlns="http://www.w3.org/2000/svg" xmlns:xlink="http://www.w3.org/1999/xlink" width="419.34932" height="262.53762" viewBox="0,0,419.34932,262.53762"><defs><radialGradient cx="410.88774" cy="220.2696" r="12.81348" gradientUnits="userSpaceOnUse" id="color-1"><stop offset="0" stop-color="#579387"/><stop offset="1" stop-color="#000000"/></radialGradient><linearGradient x1="404.65956" y1="214.0374" x2="404.65956" y2="226.99625" gradientUnits="userSpaceOnUse" id="color-2"><stop offset="0" stop-color="#97fff2"/><stop offset="1" stop-color="#ffffff"/></linearGradient></defs><g transform="translate(-1.28981,-74.22992)"><g data-paper-data="{&quot;isPaintingLayer&quot;:true}" fill-rule="nonzero" stroke-linecap="butt" stroke-linejoin="miter" stroke-miterlimit="10" stroke-dasharray="" stroke-dashoffset="0" style="mix-blend-mode: normal"><path d="M2.28981,335.76754v-15.43949h130.17779v15.43949z" fill="none" stroke="#000000" stroke-width="2"/><path d="M112.89441,320.22204v-63.35008h19.64344v63.35008z" fill="none" stroke="#000000" stroke-width="2"/><path d="M150.96608,253.57981v-11.29498h32.90276v11.29498z" fill="none" stroke="#000000" stroke-width="2"/><path d="M193.62821,238.97704v-14.24149h42.23339v14.24149z" fill="none" stroke="#000000" stroke-width="2"/><path d="M411.08082,211.00951c2.63719,0 5.02693,1.07081 6.75688,2.80145c1.73062,1.72992 2.80143,4.11968 2.80143,6.75686c0,2.63719 -1.07081,5.02693 -2.80143,6.75688c-1.72994,1.73062 -4.11968,2.80143 -6.75688,2.80143c-2.63717,0 -5.02693,-1.07081 -6.75686,-2.80143c-1.73062,-1.72994 -2.80145,-4.11968 -2.80145,-6.75688c0,-2.63717 1.07082,-5.02693 2.80145,-6.75686c1.72992,-1.73064 4.11968,-2.80145 6.75686,-2.80145z" fill="url(#color-1)" stroke="none" stroke-width="3.80256"/><path d="M411.13899,214.0374c1.78759,0 3.40754,0.72606 4.58045,1.89898c1.17291,1.17291 1.89898,2.79286 1.89898,4.58045c0,1.78759 -0.72606,3.40754 -1.89898,4.58045c-1.17291,1.17291 -2.79286,1.89898 -4.58045,1.89898c-1.78759,0 -3.40754,-0.72606 -4.58045,-1.89898c-1.17291,-1.17291 -1.89898,-2.79286 -1.89898,-4.58045c0,-1.78759 0.72606,-3.40754 1.89898,-4.58045c1.17291,-1.17291 2.79286,-1.89898 4.58045,-1.89898z" fill="url(#color-2)" stroke="#3e6764" stroke-width="2"/><path d="M245.39124,277.85478v-17.34177h25.55629v17.34177z" fill="none" stroke="#000000" stroke-width="2"/><path d="M291.9402,276.02933v-14.60359h6.38907v14.60359z" fill="none" stroke="#000000" stroke-width="2"/><path d="M312.93286,254.12394v-18.25449h2.73817v18.25449z" fill="none" stroke="#000000" stroke-width="2"/><path d="M335.75098,224.00403v-15.51632h4.56362v15.51632z" fill="none" stroke="#000000" stroke-width="2"/><path d="M358.56909,210.31316v-22.81812h6.38907v22.81812z" fill="none" stroke="#000000" stroke-width="2"/><path d="M50.06816,76.14264v-0.91272h3.6509v0.91272z" fill="none" stroke="#ffe8f6" stroke-width="2"/><path d="M206.41174,224.14823l3.73648,-7.2907l3.64535,7.2907z" fill="#ff0000" stroke="none" stroke-width="0"/><path d="M210.09115,224.14823l0.09113,-7.2907l3.64535,7.2907z" fill="#ff0000" stroke="none" stroke-width="0"/><path d="M213.83906,224.1477l3.73648,-7.2907l3.64535,7.2907z" fill="#ff0000" stroke="none" stroke-width="0"/><path d="M217.51846,224.1477l0.09114,-7.2907l3.64535,7.2907z" fill="#ff0000" stroke="none" stroke-width="0"/></g></g></svg>