<svg version="1.1" xmlns="http://www.w3.org/2000/svg" xmlns:xlink="http://www.w3.org/1999/xlink" width="261" height="177.70723" viewBox="0,0,261,177.70723"><defs><radialGradient cx="173.48342" cy="168.12665" r="14.2993" gradientUnits="userSpaceOnUse" id="color-1"><stop offset="0" stop-color="#579387"/><stop offset="1" stop-color="#000000"/></radialGradient><linearGradient x1="166.53304" y1="161.17178" x2="166.53304" y2="175.63332" gradientUnits="userSpaceOnUse" id="color-2"><stop offset="0" stop-color="#97fff2"/><stop offset="1" stop-color="#ffffff"/></linearGradient></defs><g transform="translate(-28.5,-157.79279)"><g data-paper-data="{&quot;isPaintingLayer&quot;:true}" fill-rule="nonzero" stroke-linejoin="miter" stroke-miterlimit="10" stroke-dasharray="" stroke-dashoffset="0" style="mix-blend-mode: normal"><path d="M29.5,333.00001v-10h129v10z" fill="none" stroke="#000000" stroke-width="2" stroke-linecap="butt"/><path d="M158.67073,335.35368v-8.85366c0,0 7.89093,1.17073 15.83901,1.17073c6.42726,0 8.5406,-1.17073 18.66741,-1.17073c10.18617,0 10.26049,1.17073 16.97037,1.17073c8.49517,0 16.97037,-1.17073 16.97037,-1.17073v8.85366z" fill="#ff0000" stroke="none" stroke-width="NaN" stroke-linecap="butt"/><path d="M158.67073,335.20734v-7.2439c0,0 7.89093,1.17073 15.83901,1.17073c6.42726,0 8.5406,-1.17073 18.66741,-1.17073c10.18617,0 10.26049,1.17073 16.97037,1.17073c8.49517,0 16.97037,-1.17073 16.97037,-1.17073v7.31707z" fill="#ff0000" stroke="none" stroke-width="NaN" stroke-linecap="butt"/><path d="M158.67073,335.28051v-5.78049c0,0 7.89093,1.17073 15.83901,1.17073c6.42726,0 8.5406,-1.17073 18.66741,-1.17073c10.18617,0 10.26049,1.17073 16.97037,1.17073c8.49517,0 16.97037,-1.17073 16.97037,-1.17073v5.85366z" fill="#ff0000" stroke="none" stroke-width="NaN" stroke-linecap="butt"/><path d="M158.67073,335.42685v-4.31707c0,0 7.89093,1.17073 15.83901,1.17073c6.42726,0 8.5406,-1.17073 18.66741,-1.17073c10.18617,0 10.26049,1.17073 16.97037,1.17073c8.49517,0 16.97037,-1.17073 16.97037,-1.17073v4.39024z" fill="#ff0000" stroke="none" stroke-width="NaN" stroke-linecap="butt"/><path d="M181.5,326.00001v-5h16v5z" fill="none" stroke="#000000" stroke-width="2" stroke-linecap="butt"/><path d="M227.5,317.00001v-8h27v8z" fill="none" stroke="#000000" stroke-width="2" stroke-linecap="butt"/><path d="M267.5,298.00001v-16h21v16z" fill="none" stroke="#000000" stroke-width="2" stroke-linecap="butt"/><path d="M219.5,277.00001v-13h30v13z" fill="none" stroke="#000000" stroke-width="2" stroke-linecap="butt"/><path d="M154.83333,253.00001v-19h47v19z" fill="none" stroke="#000000" stroke-width="2" stroke-linecap="butt"/><path d="M161.41174,232.8149l4.48068,-8.74279l4.3714,8.74279z" fill="#ff0000" stroke="none" stroke-width="0" stroke-linecap="butt"/><path d="M165.1573,232.8149l0.10928,-8.74279l4.3714,8.74279z" fill="#ff0000" stroke="none" stroke-width="0" stroke-linecap="butt"/><path d="M183.03878,233.14556l4.8115,-9.38829l4.69415,9.38829z" fill="#ff0000" stroke="none" stroke-width="0" stroke-linecap="butt"/><path d="M187.77678,233.14556l0.11735,-9.38829l4.69415,9.38829z" fill="#ff0000" stroke="none" stroke-width="0" stroke-linecap="butt"/><path d="M71.83333,234.00001v-16.66667h55.33333v16.66667z" fill="none" stroke="#000000" stroke-width="2" stroke-linecap="butt"/><path d="M153.66667,199.33333v-17h41.33334v17z" fill="none" stroke="#000000" stroke-width="2" stroke-linecap="butt"/><path d="M173.69889,157.79279c2.94299,0 5.60985,1.19497 7.54039,3.1263c1.9313,1.93052 3.12628,4.59739 3.12628,7.54037c0,2.94299 -1.19497,5.60985 -3.12628,7.54039c-1.93054,1.9313 -4.59739,3.12628 -7.54039,3.12628c-2.94297,0 -5.60985,-1.19497 -7.54037,-3.12628c-1.9313,-1.93054 -3.1263,-4.59739 -3.1263,-7.54039c0,-2.94297 1.19499,-5.60985 3.1263,-7.54037c1.93052,-1.93132 4.59739,-3.1263 7.54037,-3.1263z" fill="url(#color-1)" stroke="none" stroke-width="3.80256" stroke-linecap="butt"/><path d="M173.76381,161.17178c1.99487,0 3.80267,0.81026 5.11159,2.11918c1.30892,1.30892 2.11918,3.11672 2.11918,5.11159c0,1.99487 -0.81026,3.80267 -2.11918,5.11159c-1.30892,1.30892 -3.11672,2.11918 -5.11159,2.11918c-1.99487,0 -3.80267,-0.81026 -5.11159,-2.11918c-1.30892,-1.30892 -2.11918,-3.11672 -2.11918,-5.11159c0,-1.99487 0.81026,-3.80267 2.11918,-5.11159c1.30892,-1.30892 3.11672,-2.11918 5.11159,-2.11918z" fill="url(#color-2)" stroke="#3e6764" stroke-width="2" stroke-linecap="butt"/><path d="M268.33333,281h11.66667" fill="none" stroke="#ff0000" stroke-width="2" stroke-linecap="round"/></g></g></svg>