<svg version="1.1" xmlns="http://www.w3.org/2000/svg" xmlns:xlink="http://www.w3.org/1999/xlink" width="475.5537" height="281.36692" viewBox="0,0,475.5537,281.36692"><defs><radialGradient cx="430.97162" cy="120.03252" r="4.02168" gradientUnits="userSpaceOnUse" id="color-1"><stop offset="0" stop-color="#579387"/><stop offset="1" stop-color="#000000"/></radialGradient><linearGradient x1="429.01683" y1="118.07646" x2="429.01683" y2="122.14377" gradientUnits="userSpaceOnUse" id="color-2"><stop offset="0" stop-color="#97fff2"/><stop offset="1" stop-color="#ffffff"/></linearGradient></defs><g transform="translate(-9.63945,-50.95137)"><g data-paper-data="{&quot;isPaintingLayer&quot;:true}" fill-rule="nonzero" stroke-linejoin="miter" stroke-miterlimit="10" stroke-dasharray="" stroke-dashoffset="0" style="mix-blend-mode: normal"><path d="M10.63945,331.31829v-4.98478h113.65289v4.98478z" fill="none" stroke="#000000" stroke-width="2" stroke-linecap="butt"/><path d="M137.25275,323.34265v-6.97869h22.92997v6.97869z" fill="none" stroke="#000000" stroke-width="2" stroke-linecap="butt"/><path d="M172.14619,305.39745v-6.97869h21.93301v6.97869z" fill="none" stroke="#000000" stroke-width="2" stroke-linecap="butt"/><path d="M205.04571,295.4279v-7.97564h34.89343v7.97564z" fill="none" stroke="#000000" stroke-width="2" stroke-linecap="butt"/><path d="M248.91173,276.48575v-8.9726h35.89039v8.9726z" fill="none" stroke="#000000" stroke-width="2" stroke-linecap="butt"/><path d="M299.75645,265.51925v-7.97564h24.92388v7.97564z" fill="none" stroke="#000000" stroke-width="2" stroke-linecap="butt"/><path d="M329.6651,291.44008v-5.98173h20.93606v5.98173z" fill="none" stroke="#000000" stroke-width="2" stroke-linecap="butt"/><path d="M362.56462,307.39136v-7.97564h18.94215v7.97564z" fill="none" stroke="#000000" stroke-width="2" stroke-linecap="butt"/><path d="M390.47937,325.33656v-7.97564h26.91779v7.97564z" fill="none" stroke="#000000" stroke-width="2" stroke-linecap="butt"/><path d="M423.37889,305.39745v-9.96955h24.92388v9.96955z" fill="none" stroke="#000000" stroke-width="2" stroke-linecap="butt"/><path d="M458.27232,279.47662v-5.98173h19.9391v5.98173z" fill="none" stroke="#000000" stroke-width="2" stroke-linecap="butt"/><path d="M422.38194,264.52229v-12.96042h25.92083v12.96042z" fill="none" stroke="#000000" stroke-width="2" stroke-linecap="butt"/><path d="M388.48546,253.55578v-13.95737h24.92388v13.95737z" fill="none" stroke="#000000" stroke-width="2" stroke-linecap="butt"/><path d="M420.38802,221.65322v-5.98173h23.92692v5.98173z" fill="none" stroke="#000000" stroke-width="2" stroke-linecap="butt"/><path d="M460.26623,211.68367v-7.97564h23.92692v7.97564z" fill="none" stroke="#000000" stroke-width="2" stroke-linecap="butt"/><path d="M430.35758,192.74152v-5.98173h13.95737v5.98173z" fill="none" stroke="#000000" stroke-width="2" stroke-linecap="butt"/><path d="M382.50373,193.73847v-10.96651h28.9117v10.96651z" fill="none" stroke="#000000" stroke-width="2" stroke-linecap="butt"/><path d="M335.64683,198.72325v-9.96955h32.89952v9.96955z" fill="none" stroke="#000000" stroke-width="2" stroke-linecap="butt"/><path d="M308.72904,208.6928v-11.96346h20.93606v11.96346z" fill="none" stroke="#000000" stroke-width="2" stroke-linecap="butt"/><path d="M271.8417,224.64408v-10.96651h30.90561v10.96651z" fill="none" stroke="#000000" stroke-width="2" stroke-linecap="butt"/><path d="M243.92696,230.62581v-7.97564h16.94824v7.97564z" fill="none" stroke="#000000" stroke-width="2" stroke-linecap="butt"/><path d="M211.02744,217.6654v-14.95433h22.92997v14.95433z" fill="none" stroke="#000000" stroke-width="2" stroke-linecap="butt"/><path d="M173.14314,210.68671v-13.95737h24.92388v13.95737z" fill="none" stroke="#000000" stroke-width="2" stroke-linecap="butt"/><path d="M144.23144,239.59841v-11.96346h22.92997v11.96346z" fill="none" stroke="#000000" stroke-width="2" stroke-linecap="butt"/><path d="M106.34714,233.61668v-13.95737h22.92997v13.95737z" fill="none" stroke="#000000" stroke-width="2" stroke-linecap="butt"/><path d="M69.4598,225.64104v-8.9726h19.9391v8.9726z" fill="none" stroke="#000000" stroke-width="2" stroke-linecap="butt"/><path d="M35.56333,221.65322v-10.96651h18.94215v10.96651z" fill="none" stroke="#000000" stroke-width="2" stroke-linecap="butt"/><path d="M57.49634,192.74152v-9.96955h27.91475v9.96955z" fill="none" stroke="#000000" stroke-width="2" stroke-linecap="butt"/><path d="M97.37455,177.78719v-9.96955h35.89039v9.96955z" fill="none" stroke="#000000" stroke-width="2" stroke-linecap="butt"/><path d="M143.23449,154.85722v-6.97869h17.94519v6.97869z" fill="none" stroke="#000000" stroke-width="2" stroke-linecap="butt"/><path d="M174.1401,142.89376v-13.95737h28.9117v13.95737z" fill="none" stroke="#000000" stroke-width="2" stroke-linecap="butt"/><path d="M210.03048,121.9577v-12.96042h33.89648v12.96042z" fill="none" stroke="#000000" stroke-width="2" stroke-linecap="butt"/><path d="M247.91478,95.03991v-6.97869h22.92997v6.97869z" fill="none" stroke="#000000" stroke-width="2" stroke-linecap="butt"/><path d="M276.82648,78.09167v-9.96955h30.90561v9.96955z" fill="none" stroke="#000000" stroke-width="2" stroke-linecap="butt"/><path d="M309.726,63.13734v-9.96955h31.90257v9.96955z" fill="none" stroke="#000000" stroke-width="2" stroke-linecap="butt"/><path d="M355.58594,65.13125v-9.96955h33.89648v9.96955z" fill="none" stroke="#000000" stroke-width="2" stroke-linecap="butt"/><path d="M385.49459,100.02469v-10.96651h23.92692v10.96651z" fill="none" stroke="#000000" stroke-width="2" stroke-linecap="butt"/><path d="M410.41847,137.90898v-9.96955h41.87212v9.96955z" fill="none" stroke="#000000" stroke-width="2" stroke-linecap="butt"/><path d="M146.97866,308.17006l-0.49924,7.48856" fill="none" stroke="#ff0000" stroke-width="2" stroke-linecap="round"/><path d="M177.43215,290.1975v6.49009" fill="none" stroke="#ff0000" stroke-width="2" stroke-linecap="round"/><path d="M185.41995,291.19598l4.49314,8.48704" fill="none" stroke="#ff0000" stroke-width="2" stroke-linecap="round"/><path d="M213.8765,285.20513l14.97713,0.49924" fill="none" stroke="#ff0000" stroke-width="2" stroke-linecap="round"/><path d="M259.30712,265.23563l-1.49771,-9.48552" fill="none" stroke="#ff0000" stroke-width="2" stroke-linecap="round"/><path d="M269.29188,255.75011l3.49466,11.48247" fill="none" stroke="#ff0000" stroke-width="2" stroke-linecap="round"/><path d="M250.82008,213.31491v7.48856" fill="none" stroke="#ff0000" stroke-width="2" stroke-linecap="round"/><path d="M217.8704,190.84922v9.98475" fill="none" stroke="#ff0000" stroke-width="2" stroke-linecap="round"/><path d="M183.92224,195.84159v-8.48704" fill="none" stroke="#ff0000" stroke-width="2" stroke-linecap="round"/><path d="M157.96188,225.79585v-7.48856" fill="none" stroke="#ff0000" stroke-width="2" stroke-linecap="round"/><path d="M117.52363,217.80805v-6.49009" fill="none" stroke="#ff0000" stroke-width="2" stroke-linecap="round"/><path d="M76.08691,215.8111h7.9878" fill="none" stroke="#ff0000" stroke-width="2" stroke-linecap="round"/><path d="M40.64104,209.82025v-4.49314h4.49314v3.49466" fill="none" stroke="#ff0000" stroke-width="2" stroke-linecap="round"/><path d="M56.61664,182.36218h12.98018" fill="none" stroke="#ff0000" stroke-width="2" stroke-linecap="round"/><path d="M111.03355,155.90258v10.48399" fill="none" stroke="#ff0000" stroke-width="2" stroke-linecap="round"/><path d="M122.01677,164.88886v-8.48704" fill="none" stroke="#ff0000" stroke-width="2" stroke-linecap="round"/><path d="M150.97256,140.92545v4.99238" fill="none" stroke="#ff0000" stroke-width="2" stroke-linecap="round"/><path d="M183.0183,128.33626l11.48247,-0.49924" fill="none" stroke="#ff0000" stroke-width="2" stroke-linecap="round"/><path d="M219.46265,103.37437l0.49924,4.99238" fill="none" stroke="#ff0000" stroke-width="2" stroke-linecap="round"/><path d="M227.45045,107.86752v-4.99238" fill="none" stroke="#ff0000" stroke-width="2" stroke-linecap="round"/><path d="M234.43977,107.86751v-5.99085" fill="none" stroke="#ff0000" stroke-width="2" stroke-linecap="round"/><path d="M255.40776,82.40639v4.99238" fill="none" stroke="#ff0000" stroke-width="2" stroke-linecap="round"/><path d="M304.83228,66.43079l-24.46264,0.49924" fill="none" stroke="#ff0000" stroke-width="2" stroke-linecap="round"/><path d="M319.66027,51.95137h8.98628" fill="none" stroke="#ff0000" stroke-width="2" stroke-linecap="round"/><path d="M367.73623,54.44909h-11.48247" fill="none" stroke="#ff0000" stroke-width="2" stroke-linecap="round"/><path d="M282.86583,211.70894v-7.48856" fill="none" stroke="#ff0000" stroke-width="2" stroke-linecap="round"/><path d="M312.32085,188.24477l0.99848,6.49009" fill="none" stroke="#ff0000" stroke-width="2" stroke-linecap="round"/><path d="M322.80484,187.74553v6.98933" fill="none" stroke="#ff0000" stroke-width="2" stroke-linecap="round"/><path d="M343.27358,180.25697l0.99848,5.99085" fill="none" stroke="#ff0000" stroke-width="2" stroke-linecap="round"/><path d="M355.75452,188.24477v-8.98628" fill="none" stroke="#ff0000" stroke-width="2" stroke-linecap="round"/><path d="M396.82771,183.2524l-2.49619,-8.98628" fill="none" stroke="#ff0000" stroke-width="2" stroke-linecap="round"/><path d="M436.76672,178.26002v6.98933" fill="none" stroke="#ff0000" stroke-width="2" stroke-linecap="round"/><path d="M396.81856,85.40182l-11.9817,0.49924" fill="none" stroke="#ff0000" stroke-width="2" stroke-linecap="round"/><path d="M470.21564,192.73791l0.49924,8.48704" fill="none" stroke="#ff0000" stroke-width="2" stroke-linecap="round"/><path d="M429.77739,204.22038v8.48704" fill="none" stroke="#ff0000" stroke-width="2" stroke-linecap="round"/><path d="M401.82008,229.18226v10.98323" fill="none" stroke="#ff0000" stroke-width="2" stroke-linecap="round"/><path d="M437.7652,250.15024l-0.49924,-6.49009" fill="none" stroke="#ff0000" stroke-width="2" stroke-linecap="round"/><path d="M392.83381,229.18226l0.49924,6.98933" fill="none" stroke="#ff0000" stroke-width="2" stroke-linecap="round"/><path d="M426.78196,250.15024v-5.99085" fill="none" stroke="#ff0000" stroke-width="2" stroke-linecap="round"/><path d="M473.7103,271.72572l-1.99695,-11.48247" fill="none" stroke="#ff0000" stroke-width="2" stroke-linecap="round"/><path d="M433.77129,286.70284l1.49771,7.9878" fill="none" stroke="#ff0000" stroke-width="2" stroke-linecap="round"/><path d="M394.33152,308.6693l2.49619,8.98628" fill="none" stroke="#ff0000" stroke-width="2" stroke-linecap="round"/><path d="M402.31932,305.17463l0.49924,10.48399" fill="none" stroke="#ff0000" stroke-width="2" stroke-linecap="round"/><path d="M375.36049,298.68454l-8.48704,0.99848" fill="none" stroke="#ff0000" stroke-width="2" stroke-linecap="round"/><path d="M386.84295,256.74858v-18.97103" fill="none" stroke="#ff0000" stroke-width="2" stroke-linecap="round"/><path d="M316.94969,255.25087h7.9878" fill="none" stroke="#ff0000" stroke-width="2" stroke-linecap="round"/><path d="M338.91614,283.20818v-6.49009" fill="none" stroke="#ff0000" stroke-width="2" stroke-linecap="round"/><path d="M431.03222,117.12612c0.82772,0 1.57777,0.33609 2.12073,0.87927c0.54318,0.54296 0.87927,1.29302 0.87927,2.12073c0,0.82772 -0.33609,1.57777 -0.87927,2.12073c-0.54297,0.54318 -1.29302,0.87927 -2.12073,0.87927c-0.82771,0 -1.57777,-0.33609 -2.12073,-0.87927c-0.54318,-0.54297 -0.87927,-1.29302 -0.87927,-2.12073c0,-0.82771 0.33609,-1.57777 0.87927,-2.12073c0.54296,-0.54318 1.29302,-0.87927 2.12073,-0.87927z" fill="url(#color-1)" stroke="none" stroke-width="3.80256" stroke-linecap="butt"/><path d="M431.05048,118.07646c0.56106,0 1.0695,0.22788 1.43763,0.59602c0.36813,0.36813 0.59602,0.87658 0.59602,1.43763c0,0.56106 -0.22788,1.0695 -0.59602,1.43763c-0.36813,0.36813 -0.87658,0.59602 -1.43763,0.59602c-0.56106,0 -1.0695,-0.22788 -1.43763,-0.59602c-0.36813,-0.36813 -0.59602,-0.87658 -0.59602,-1.43763c0,-0.56106 0.22788,-1.0695 0.59602,-1.43763c0.36813,-0.36813 0.87658,-0.59602 1.43763,-0.59602z" fill="url(#color-2)" stroke="#3e6764" stroke-width="2" stroke-linecap="butt"/></g></g></svg>