<svg version="1.1" xmlns="http://www.w3.org/2000/svg" xmlns:xlink="http://www.w3.org/1999/xlink" width="430.87621" height="310.79303" viewBox="0,0,430.87621,310.79303"><defs><radialGradient cx="412.14202" cy="96.43685" r="16.0278" gradientUnits="userSpaceOnUse" id="color-1"><stop offset="0" stop-color="#579387"/><stop offset="1" stop-color="#000000"/></radialGradient><linearGradient x1="419.93256" y1="88.64128" x2="419.93256" y2="104.85092" gradientUnits="userSpaceOnUse" id="color-2"><stop offset="0" stop-color="#97fff2"/><stop offset="1" stop-color="#ffffff"/></linearGradient></defs><g transform="translate(-26.97674,-38.23931)"><g data-paper-data="{&quot;isPaintingLayer&quot;:true}" fill-rule="nonzero" stroke-linejoin="miter" stroke-miterlimit="10" stroke-dasharray="" stroke-dashoffset="0" style="mix-blend-mode: normal"><path d="M57.59963,348.03234v-7.54677h135.24614v7.54677z" fill="none" stroke="#000000" stroke-width="2" stroke-linecap="butt"/><path d="M171.03517,331.01113v-6.87872h24.0755v6.87872z" fill="none" stroke="#000000" stroke-width="2" stroke-linecap="butt"/><path d="M204.44607,318.72771v-6.38738h24.56684v6.38738z" fill="none" stroke="#000000" stroke-width="2" stroke-linecap="butt"/><path d="M238.83965,306.93562v-7.37005h27.02352v7.37005z" fill="none" stroke="#000000" stroke-width="2" stroke-linecap="butt"/><path d="M275.68991,292.68686v-10.31807h29.48021v10.31807z" fill="none" stroke="#000000" stroke-width="2" stroke-linecap="butt"/><path d="M314.50551,274.5074v-6.38738h25.05818v6.38738z" fill="none" stroke="#000000" stroke-width="2" stroke-linecap="butt"/><path d="M349.88176,259.76729v-8.84406h21.61882v8.84406z" fill="none" stroke="#000000" stroke-width="2" stroke-linecap="butt"/><path d="M382.47577,244.98398v-6.76156h32.84187v6.76156z" fill="none" stroke="#000000" stroke-width="2" stroke-linecap="butt"/><path d="M424.01108,223.73335v-7.7275h32.84187v7.7275z" fill="none" stroke="#000000" stroke-width="2" stroke-linecap="butt"/><path d="M363.15702,206.34648v-14.48906h40.56937v14.48906z" fill="none" stroke="#000000" stroke-width="2" stroke-linecap="butt"/><path d="M302.30296,185.09586v-13.52312h40.56937v13.52312z" fill="none" stroke="#000000" stroke-width="2" stroke-linecap="butt"/><path d="M239.51703,165.77711v-14.48906h35.73968v14.48906z" fill="none" stroke="#000000" stroke-width="2" stroke-linecap="butt"/><path d="M181.56079,152.25399v-13.52312h36.70562v13.52312z" fill="none" stroke="#000000" stroke-width="2" stroke-linecap="butt"/><path d="M90.76267,131.9693v-13.52312h55.05843v13.52312z" fill="none" stroke="#000000" stroke-width="2" stroke-linecap="butt"/><path d="M27.97674,108.7868v-15.455h38.6375v15.455z" fill="none" stroke="#000000" stroke-width="2" stroke-linecap="butt"/><path d="M94.62642,84.63837v-20.28469h48.29687v20.28469z" fill="none" stroke="#000000" stroke-width="2" stroke-linecap="butt"/><path d="M190.25422,104.92305v-12.55719h37.67156v12.55719z" fill="none" stroke="#000000" stroke-width="2" stroke-linecap="butt"/><path d="M241.44891,83.67243v-15.455h40.56937v15.455z" fill="none" stroke="#000000" stroke-width="2" stroke-linecap="butt"/><path d="M293.60953,50.83056v-11.59125h38.6375v11.59125z" fill="none" stroke="#000000" stroke-width="2" stroke-linecap="butt"/><path d="M391.1692,131.9693v-19.31875h45.39906v19.31875z" fill="none" stroke="#000000" stroke-width="2" stroke-linecap="butt"/><path d="M118.89111,340.4403l8.53857,-16.6606l8.33031,16.6606z" fill="#ff0000" stroke="none" stroke-width="0" stroke-linecap="butt"/><path d="M127.29923,340.4403l0.20826,-16.6606l8.3303,16.6606z" fill="#ff0000" stroke="none" stroke-width="0" stroke-linecap="butt"/><path d="M135.86392,340.43908l8.53856,-16.6606l8.3303,16.6606z" fill="#ff0000" stroke="none" stroke-width="0" stroke-linecap="butt"/><path d="M144.27204,340.43908l0.20826,-16.6606l8.3303,16.6606z" fill="#ff0000" stroke="none" stroke-width="0" stroke-linecap="butt"/><path d="M243.32318,299.0753l4.51765,-8.81491l4.40745,8.81491z" fill="#ff0000" stroke="none" stroke-width="0" stroke-linecap="butt"/><path d="M247.7718,299.0753l0.11019,-8.81491l4.40745,8.81491z" fill="#ff0000" stroke="none" stroke-width="0" stroke-linecap="butt"/><path d="M252.30327,299.07466l4.51764,-8.81491l4.40746,8.81491z" fill="#ff0000" stroke="none" stroke-width="0" stroke-linecap="butt"/><path d="M256.75189,299.07466l0.11019,-8.81491l4.40745,8.81491z" fill="#ff0000" stroke="none" stroke-width="0" stroke-linecap="butt"/><path d="M431.73858,215.03992h22.21656" fill="none" stroke="#ff0000" stroke-width="2" stroke-linecap="round"/><path d="M311.97142,172.70782l4.54372,-8.86581l4.43291,8.86581z" fill="#ff0000" stroke="none" stroke-width="0" stroke-linecap="butt"/><path d="M316.44573,172.70782l0.11082,-8.86581l4.43291,8.86581z" fill="#ff0000" stroke="none" stroke-width="0" stroke-linecap="butt"/><path d="M321.00336,172.70717l4.54372,-8.86581l4.43291,8.86581z" fill="#ff0000" stroke="none" stroke-width="0" stroke-linecap="butt"/><path d="M325.47767,172.70717l0.11082,-8.86581l4.43291,8.86581z" fill="#ff0000" stroke="none" stroke-width="0" stroke-linecap="butt"/><path d="M192.3655,138.10438l4.54372,-8.86581l4.43291,8.86581z" fill="#ff0000" stroke="none" stroke-width="0" stroke-linecap="butt"/><path d="M196.83981,138.10438l0.11082,-8.86581l4.43291,8.86581z" fill="#ff0000" stroke="none" stroke-width="0" stroke-linecap="butt"/><path d="M201.39743,138.10373l4.54373,-8.86581l4.43291,8.86581z" fill="#ff0000" stroke="none" stroke-width="0" stroke-linecap="butt"/><path d="M205.87175,138.10373l0.11082,-8.86581l4.4329,8.86581z" fill="#ff0000" stroke="none" stroke-width="0" stroke-linecap="butt"/><path d="M94.97613,118.95595l4.54373,-8.86581l4.4329,8.86581z" fill="#ff0000" stroke="none" stroke-width="0" stroke-linecap="butt"/><path d="M99.45044,118.95595l0.11083,-8.86581l4.4329,8.86581z" fill="#ff0000" stroke="none" stroke-width="0" stroke-linecap="butt"/><path d="M104.00807,118.9553l4.54373,-8.86581l4.43291,8.86581z" fill="#ff0000" stroke="none" stroke-width="0" stroke-linecap="butt"/><path d="M108.48239,118.9553l0.11082,-8.86581l4.43291,8.86581z" fill="#ff0000" stroke="none" stroke-width="0" stroke-linecap="butt"/><path d="M122.19269,119.12626l4.54373,-8.86581l4.43291,8.86581z" fill="#ff0000" stroke="none" stroke-width="0" stroke-linecap="butt"/><path d="M126.667,119.12626l0.11083,-8.86581l4.43291,8.86581z" fill="#ff0000" stroke="none" stroke-width="0" stroke-linecap="butt"/><path d="M131.22463,119.12561l4.54373,-8.8658l4.4329,8.8658z" fill="#ff0000" stroke="none" stroke-width="0" stroke-linecap="butt"/><path d="M135.69895,119.12561l0.11082,-8.8658l4.43291,8.8658z" fill="#ff0000" stroke="none" stroke-width="0" stroke-linecap="butt"/><path d="M107.87394,65.20408l4.54373,-8.86581l4.43291,8.86581z" fill="#ff0000" stroke="none" stroke-width="0" stroke-linecap="butt"/><path d="M112.34825,65.20408l0.11083,-8.86581l4.43291,8.86581z" fill="#ff0000" stroke="none" stroke-width="0" stroke-linecap="butt"/><path d="M116.90588,65.20343l4.54373,-8.8658l4.4329,8.8658z" fill="#ff0000" stroke="none" stroke-width="0" stroke-linecap="butt"/><path d="M121.3802,65.20343l0.11082,-8.8658l4.4329,8.8658z" fill="#ff0000" stroke="none" stroke-width="0" stroke-linecap="butt"/><path d="M199.97739,93.26162l4.54373,-8.86581l4.4329,8.86581z" fill="#ff0000" stroke="none" stroke-width="0" stroke-linecap="butt"/><path d="M204.45171,93.26162l0.11083,-8.86581l4.4329,8.86581z" fill="#ff0000" stroke="none" stroke-width="0" stroke-linecap="butt"/><path d="M209.00933,93.26097l4.54373,-8.86581l4.43291,8.86581z" fill="#ff0000" stroke="none" stroke-width="0" stroke-linecap="butt"/><path d="M213.48365,93.26097l0.11082,-8.86581l4.43291,8.86581z" fill="#ff0000" stroke="none" stroke-width="0" stroke-linecap="butt"/><path d="M420.35236,88.35803c2.16475,2.16389 3.5042,5.15313 3.5042,8.45185c0,3.29874 -1.33944,6.28796 -3.5042,8.45187c-2.16389,2.16476 -5.15313,3.50418 -8.45185,3.50418c-3.29874,0 -6.28796,-1.33942 -8.45187,-3.50418c-2.16476,-2.16391 -3.50418,-5.15313 -3.50418,-8.45187c0,-3.29873 1.33942,-6.28797 3.50418,-8.45185c2.16391,-2.16478 5.15313,-3.5042 8.45187,-3.5042c3.29873,0 6.28797,1.33942 8.45185,3.5042z" fill="url(#color-1)" stroke="none" stroke-width="3.80256" stroke-linecap="butt"/><path d="M417.55722,91.01662c1.46714,1.46715 2.37534,3.49347 2.37534,5.72948c0,2.23601 -0.90819,4.26233 -2.37534,5.72948c-1.46715,1.46714 -3.49347,2.37534 -5.72948,2.37534c-2.23602,0 -4.26233,-0.90819 -5.72948,-2.37534c-1.46714,-1.46715 -2.37534,-3.49347 -2.37534,-5.72948c0,-2.23602 0.90819,-4.26233 2.37534,-5.72948c1.46715,-1.46714 3.49347,-2.37534 5.72948,-2.37534c2.23601,0 4.26233,0.90819 5.72948,2.37534z" fill="url(#color-2)" stroke="#3e6764" stroke-width="2" stroke-linecap="butt"/></g></g></svg>