<svg version="1.1" xmlns="http://www.w3.org/2000/svg" xmlns:xlink="http://www.w3.org/1999/xlink" width="527.79668" height="356.77538" viewBox="0,0,527.79668,356.77538"><defs><radialGradient cx="441.68372" cy="333.39212" r="10.05419" gradientUnits="userSpaceOnUse" id="color-1"><stop offset="0" stop-color="#579387"/><stop offset="1" stop-color="#000000"/></radialGradient><linearGradient x1="446.57071" y1="328.50198" x2="446.57071" y2="338.67025" gradientUnits="userSpaceOnUse" id="color-2"><stop offset="0" stop-color="#97fff2"/><stop offset="1" stop-color="#ffffff"/></linearGradient></defs><g transform="translate(1.5924,-11.95066)"><g data-paper-data="{&quot;isPaintingLayer&quot;:true}" fill-rule="nonzero" stroke-linejoin="miter" stroke-miterlimit="10" stroke-dasharray="" stroke-dashoffset="0" style="mix-blend-mode: normal"><path d="M0.4076,320.06052v-13h131v13z" fill="none" stroke="#000000" stroke-width="2" stroke-linecap="butt"/><path d="M135.40759,297.06052v-9h29v9z" fill="none" stroke="#000000" stroke-width="2" stroke-linecap="butt"/><path d="M178.4076,282.06052v-7h42v7z" fill="none" stroke="#000000" stroke-width="2" stroke-linecap="butt"/><path d="M228.4076,271.06052v-11h48v11z" fill="none" stroke="#000000" stroke-width="2" stroke-linecap="butt"/><path d="M276.4076,255.06052v-13h47v13z" fill="none" stroke="#000000" stroke-width="2" stroke-linecap="butt"/><path d="M326.4076,236.06052v-15h52v15z" fill="none" stroke="#000000" stroke-width="2" stroke-linecap="butt"/><path d="M381.4076,209.06052v-13h48v13z" fill="none" stroke="#000000" stroke-width="2" stroke-linecap="butt"/><path d="M320.4076,192.06052v-18h49v18z" fill="none" stroke="#000000" stroke-width="2" stroke-linecap="butt"/><path d="M256.4076,174.06052v-19h51v19z" fill="none" stroke="#000000" stroke-width="2" stroke-linecap="butt"/><path d="M217.4076,199.06052v-14h35v14z" fill="none" stroke="#000000" stroke-width="2" stroke-linecap="butt"/><path d="M159.40759,183.06052v-15h43v15z" fill="none" stroke="#000000" stroke-width="2" stroke-linecap="butt"/><path d="M125.4076,203.06052v-14h31v14z" fill="none" stroke="#000000" stroke-width="2" stroke-linecap="butt"/><path d="M88.4076,184.06052v-17h29v17z" fill="none" stroke="#000000" stroke-width="2" stroke-linecap="butt"/><path d="M49.4076,200.06052v-17h32v17z" fill="none" stroke="#000000" stroke-width="2" stroke-linecap="butt"/><path d="M7.4076,182.06052v-21h31v21z" fill="none" stroke="#000000" stroke-width="2" stroke-linecap="butt"/><path d="M46.4076,155.06052v-14h41v14z" fill="none" stroke="#000000" stroke-width="2" stroke-linecap="butt"/><path d="M97.4076,132.06052v-14h51v14z" fill="none" stroke="#000000" stroke-width="2" stroke-linecap="butt"/><path d="M153.40759,115.06052v-11h76v11z" fill="none" stroke="#000000" stroke-width="2" stroke-linecap="butt"/><path d="M233.4076,98.06052v-15h56v15z" fill="none" stroke="#000000" stroke-width="2" stroke-linecap="butt"/><path d="M296.4076,122.06052v-14h64v14z" fill="none" stroke="#000000" stroke-width="2" stroke-linecap="butt"/><path d="M373.4076,99.06052v-12h52v12z" fill="none" stroke="#000000" stroke-width="2" stroke-linecap="butt"/><path d="M428.4076,78.06051v-17h56v17z" fill="none" stroke="#000000" stroke-width="2" stroke-linecap="butt"/><text transform="translate(389.4076,21.43983) scale(0.22205,0.22205)" font-size="40" xml:space="preserve" fill="#ff0000" fill-rule="nonzero" stroke-opacity="0" stroke="#000000" stroke-width="0" stroke-linecap="butt" stroke-linejoin="miter" stroke-miterlimit="10" stroke-dasharray="" stroke-dashoffset="0" font-family="Sans Serif" font-weight="normal" text-anchor="start" style="mix-blend-mode: normal"><tspan x="0" dy="0">u got trolled</tspan><tspan x="0" dy="46.15px">touch me to go back to the start</tspan><tspan x="0" dy="46.15px"> </tspan></text><path d="M-0.5924,364.06052v-13h98v13z" fill="none" stroke="#000000" stroke-width="2" stroke-linecap="butt"/><path d="M111.4076,366.72604v-15h51v15z" fill="none" stroke="#000000" stroke-width="2" stroke-linecap="butt"/><path d="M179.4076,366.72605v-15h51v15z" fill="none" stroke="#000000" stroke-width="2" stroke-linecap="butt"/><path d="M262.4076,367.72604v-18h46v18z" fill="none" stroke="#000000" stroke-width="2" stroke-linecap="butt"/><path d="M338.4076,366.72604v-19h43v19z" fill="none" stroke="#000000" stroke-width="2" stroke-linecap="butt"/><path d="M415.4076,359.72604v-15h53v15z" fill="none" stroke="#000000" stroke-width="2" stroke-linecap="butt"/><path d="M441.53222,326.12612c-2.0693,0 -3.94442,0.84022 -5.30183,2.19818c-1.35794,1.3574 -2.19817,3.23254 -2.19817,5.30182c0,2.0693 0.84022,3.94442 2.19817,5.30183c1.35742,1.35794 3.23254,2.19817 5.30183,2.19817c2.06928,0 3.94442,-0.84022 5.30182,-2.19817c1.35794,-1.35742 2.19818,-3.23254 2.19818,-5.30183c0,-2.06928 -0.84024,-3.94442 -2.19818,-5.30182c-1.3574,-1.35796 -3.23254,-2.19818 -5.30182,-2.19818z" fill="url(#color-1)" stroke="none" stroke-width="3.80256" stroke-linecap="butt"/><path d="M441.48657,328.50198c-1.40265,0 -2.67375,0.56971 -3.59408,1.49005c-0.92034,0.92034 -1.49005,2.19144 -1.49005,3.59409c0,1.40265 0.56971,2.67375 1.49005,3.59409c0.92034,0.92034 2.19144,1.49005 3.59408,1.49005c1.40265,0 2.67376,-0.56971 3.59409,-1.49005c0.92034,-0.92034 1.49004,-2.19144 1.49004,-3.59409c0,-1.40265 -0.56971,-2.67375 -1.49004,-3.59409c-0.92034,-0.92034 -2.19145,-1.49005 -3.59409,-1.49005z" fill="url(#color-2)" stroke="#3e6764" stroke-width="2" stroke-linecap="butt"/><path d="M141.38296,286.2715h16" fill="none" stroke="#ff0000" stroke-width="2" stroke-linecap="round"/><path d="M185.38296,274.2715h4" fill="none" stroke="#ff0000" stroke-width="2" stroke-linecap="round"/><path d="M200.71629,273.93816h6" fill="none" stroke="#ff0000" stroke-width="2" stroke-linecap="round"/><path d="M234.38296,259.60483h32.33333" fill="none" stroke="#ff0000" stroke-width="2" stroke-linecap="round"/><path d="M287.38296,240.2715l21.33333,-0.66667" fill="none" stroke="#ff0000" stroke-width="2" stroke-linecap="round"/><path d="M349.04963,213.2715l0.33334,6.33333" fill="none" stroke="#ff0000" stroke-width="2" stroke-linecap="round"/><path d="M394.88912,195.8018h19" fill="none" stroke="#ff0000" stroke-width="2" stroke-linecap="round"/><path d="M346.38912,173.3018h-13.5" fill="none" stroke="#ff0000" stroke-width="2" stroke-linecap="round"/><path d="M280.38912,153.8018v-16.5" fill="none" stroke="#ff0000" stroke-width="2" stroke-linecap="round"/><path d="M232.88912,184.3018v-7.5" fill="none" stroke="#ff0000" stroke-width="2" stroke-linecap="round"/><path d="M187.38912,166.3018v-5" fill="none" stroke="#ff0000" stroke-width="2" stroke-linecap="round"/><path d="M170.38912,167.3018v-8" fill="none" stroke="#ff0000" stroke-width="2" stroke-linecap="round"/><path d="M135.88912,188.3018v-7.5" fill="none" stroke="#ff0000" stroke-width="2" stroke-linecap="round"/><path d="M104.88912,165.8018h-9.5" fill="none" stroke="#ff0000" stroke-width="2" stroke-linecap="round"/><path d="M58.42608,183.3018l11.5,-3" fill="none" stroke="#ff0000" stroke-width="2" stroke-linecap="round"/><path d="M17.42608,159.8018h13.5" fill="none" stroke="#ff0000" stroke-width="2" stroke-linecap="round"/><path d="M54.42608,138.8018h26.5" fill="none" stroke="#ff0000" stroke-width="2" stroke-linecap="round"/><path d="M110.92608,115.8018v-10" fill="none" stroke="#ff0000" stroke-width="2" stroke-linecap="round"/><path d="M131.42608,117.3018v-11.5" fill="none" stroke="#ff0000" stroke-width="2" stroke-linecap="round"/><path d="M165.92608,101.8018l12.25,-12.25l11.75,12.75" fill="none" stroke="#ff0000" stroke-width="2" stroke-linecap="round"/><path d="M256.42608,80.8018l6,-8.5" fill="none" stroke="#ff0000" stroke-width="2" stroke-linecap="round"/><path d="M318.42608,106.3018v-8.5" fill="none" stroke="#ff0000" stroke-width="2" stroke-linecap="round"/><path d="M338.42608,106.3018v-9" fill="none" stroke="#ff0000" stroke-width="2" stroke-linecap="round"/><path d="M383.42608,85.8018v-10" fill="none" stroke="#ff0000" stroke-width="2" stroke-linecap="round"/><path d="M408.92608,77.8018l1.5,8.5" fill="none" stroke="#ff0000" stroke-width="2" stroke-linecap="round"/></g></g></svg>