<svg version="1.1" xmlns="http://www.w3.org/2000/svg" xmlns:xlink="http://www.w3.org/1999/xlink" width="575.00001" height="325.8219" viewBox="0,0,575.00001,325.8219"><defs><radialGradient cx="33.02467" cy="55.97832" r="17.09214" gradientUnits="userSpaceOnUse" id="color-1"><stop offset="0" stop-color="#579387"/><stop offset="1" stop-color="#000000"/></radialGradient><linearGradient x1="24.71679" y1="47.66507" x2="24.71679" y2="64.95113" gradientUnits="userSpaceOnUse" id="color-2"><stop offset="0" stop-color="#97fff2"/><stop offset="1" stop-color="#ffffff"/></linearGradient></defs><g transform="translate(19.96303,-43.62612)"><g data-paper-data="{&quot;isPaintingLayer&quot;:true}" fill-rule="nonzero" stroke-linejoin="miter" stroke-miterlimit="10" stroke-dasharray="" stroke-dashoffset="0" style="mix-blend-mode: normal"><path d="M7.03698,337.44802v-17h121v17z" fill="none" stroke="#000000" stroke-width="2" stroke-linecap="butt"/><path d="M148.03698,368.44802v-9h39v9z" fill="none" stroke="#000000" stroke-width="2" stroke-linecap="butt"/><path d="M215.03698,367.44802v-13h34v13z" fill="none" stroke="#000000" stroke-width="2" stroke-linecap="butt"/><path d="M262.03695,347.44802v-16h41v16z" fill="none" stroke="#000000" stroke-width="2" stroke-linecap="butt"/><path d="M319.03695,344.44802v-22h56v22z" fill="none" stroke="#000000" stroke-width="2" stroke-linecap="butt"/><path d="M389.03698,317.44802v-12h59v12z" fill="none" stroke="#000000" stroke-width="2" stroke-linecap="butt"/><path d="M295.03695,291.44802v-18h41v18z" fill="none" stroke="#000000" stroke-width="2" stroke-linecap="butt"/><path d="M354.03698,293.44802v-13h13v13z" fill="none" stroke="#000000" stroke-width="2" stroke-linecap="butt"/><path d="M211.03698,276.44802v-18h56v18z" fill="none" stroke="#000000" stroke-width="2" stroke-linecap="butt"/><path d="M134.03698,254.44802v-6h47v6z" fill="none" stroke="#000000" stroke-width="2" stroke-linecap="butt"/><path d="M56.03698,252.44802v-6h54v6z" fill="none" stroke="#000000" stroke-width="2" stroke-linecap="butt"/><path d="M-18.96303,257.44802v-12h47v12z" fill="none" stroke="#000000" stroke-width="2" stroke-linecap="butt"/><path d="M31.03698,229.44802v-13h42v13z" fill="none" stroke="#000000" stroke-width="2" stroke-linecap="butt"/><path d="M98.03698,220.44802v-7h49v7z" fill="none" stroke="#000000" stroke-width="2" stroke-linecap="butt"/><path d="M179.03698,217.44802v-7h41v7z" fill="none" stroke="#000000" stroke-width="2" stroke-linecap="butt"/><path d="M238.03698,197.44802v-9h59v9z" fill="none" stroke="#000000" stroke-width="2" stroke-linecap="butt"/><path d="M321.03695,174.44802v-9h46v9z" fill="none" stroke="#000000" stroke-width="2" stroke-linecap="butt"/><path d="M236.03698,141.44802v-8h55v8z" fill="none" stroke="#000000" stroke-width="2" stroke-linecap="butt"/><path d="M398.03698,129.44802v-8h55v8z" fill="none" stroke="#000000" stroke-width="2" stroke-linecap="butt"/><path d="M156.03698,128.44802v-21h51v21z" fill="none" stroke="#000000" stroke-width="2" stroke-linecap="butt"/><path d="M493.03698,108.44802v-12h61v12z" fill="none" stroke="#000000" stroke-width="2" stroke-linecap="butt"/><path d="M69.03697,118.44802v-12h69v12z" fill="none" stroke="#000000" stroke-width="2" stroke-linecap="butt"/><path d="M10.03698,97.44802v-23h43v23z" fill="none" stroke="#000000" stroke-width="2" stroke-linecap="butt"/><path d="M160.57393,344.448l1,14" fill="none" stroke="#ff0000" stroke-width="2" stroke-linecap="round"/><path d="M229.57393,342.448l-5,12" fill="none" stroke="#ff0000" stroke-width="2" stroke-linecap="round"/><path d="M270.57392,330.448l2,-15" fill="none" stroke="#ff0000" stroke-width="2" stroke-linecap="round"/><path d="M282.57392,317.448l2,10" fill="none" stroke="#ff0000" stroke-width="2" stroke-linecap="round"/><path d="M326.21281,320.448l0.38889,-6.22222" fill="none" stroke="#ff0000" stroke-width="2" stroke-linecap="round"/><path d="M359.57393,324.448l-18,-13" fill="none" stroke="#ff0000" stroke-width="2" stroke-linecap="round"/><path d="M400.41342,293.08942l1,10.5" fill="none" stroke="#ff0000" stroke-width="2" stroke-linecap="round"/><path d="M357.41342,279.58942l1,-3" fill="none" stroke="#ff0000" stroke-width="2" stroke-linecap="round"/><path d="M309.91342,272.58942l-0.5,-7h11.5l-0.5,6.5" fill="none" stroke="#ff0000" stroke-width="2" stroke-linecap="round"/><path d="M237.41343,242.58942v13" fill="none" stroke="#ff0000" stroke-width="2" stroke-linecap="round"/><path d="M248.41343,255.58942v-8" fill="none" stroke="#ff0000" stroke-width="2" stroke-linecap="round"/><path d="M144.55544,248.06492v-10.5" fill="none" stroke="#ff0000" stroke-width="2" stroke-linecap="round"/><path d="M157.55544,237.06492l0.5,9.5" fill="none" stroke="#ff0000" stroke-width="2" stroke-linecap="round"/><path d="M73.57393,217.65584h23" fill="none" stroke="#ff0000" stroke-width="2" stroke-linecap="round"/><path d="M-5.94454,247.56493l5,-16.5l15,13.5" fill="none" stroke="#ff0000" stroke-width="2" stroke-linecap="round"/><path d="M43.55546,215.06493l-0.5,-12.5l13,-0.5l3.5,11.5" fill="none" stroke="#ff0000" stroke-width="2" stroke-linecap="round"/><path d="M110.55546,213.06493l3,-11l14.5,10" fill="none" stroke="#ff0000" stroke-width="2" stroke-linecap="round"/><path d="M189.55546,197.06493l-1.5,10" fill="none" stroke="#ff0000" stroke-width="2" stroke-linecap="round"/><path d="M202.05546,210.06493l-2,-15.5" fill="none" stroke="#ff0000" stroke-width="2" stroke-linecap="round"/><path d="M267.55544,180.31491c0,2.07107 -2.46243,3.75 -5.5,3.75c-3.03757,0 -5.5,-1.67893 -5.5,-3.75c0,-2.07107 2.46243,-3.75 5.5,-3.75c3.03757,0 5.5,1.67893 5.5,3.75z" fill="none" stroke="#ff0000" stroke-width="2" stroke-linecap="butt"/><path d="M344.55545,156.56491c0,2.76142 -3.69365,5 -8.25,5c-4.55635,0 -8.25,-2.23858 -8.25,-5c0,-2.76142 3.69365,-5 8.25,-5c4.55635,0 8.25,2.23858 8.25,5z" fill="none" stroke="#ff0000" stroke-width="2" stroke-linecap="butt"/><path d="M250.05545,125.56492c0,1.84095 -1.79086,3.33333 -4,3.33333c-2.20914,0 -4,-1.49239 -4,-3.33333c0,-1.84095 1.79086,-3.33333 4,-3.33333c2.20914,0 4,1.49239 4,3.33333z" fill="none" stroke="#ff0000" stroke-width="2" stroke-linecap="butt"/><path d="M279.13877,125.06492c0,1.933 -1.69759,3.5 -3.79167,3.5c-2.09408,0 -3.79167,-1.567 -3.79167,-3.5c0,-1.933 1.69759,-3.5 3.79167,-3.5c2.09408,0 3.79167,1.567 3.79167,3.5z" fill="none" stroke="#ff0000" stroke-width="2" stroke-linecap="butt"/><path d="M184.55545,88.84092c0,3.45178 -2.46243,6.25 -5.5,6.25c-3.03757,0 -5.5,-2.79822 -5.5,-6.25c0,-3.45178 2.46243,-6.25 5.5,-6.25c3.03757,0 5.5,2.79822 5.5,6.25z" fill="none" stroke="#ff0000" stroke-width="2" stroke-linecap="butt"/><path d="M87.05545,103.0753c0,3.32234 -2.46243,6.01562 -5.5,6.01562c-3.03757,0 -5.5,-2.69329 -5.5,-6.01562c0,-3.32234 2.46243,-6.01562 5.5,-6.01562c3.03757,0 5.5,2.69329 5.5,6.01563z" fill="none" stroke="#ff0000" stroke-width="2" stroke-linecap="butt"/><path d="M33.28222,43.62612c3.5178,0 6.70552,1.42837 9.01312,3.7369c2.30851,2.30758 3.73688,5.49532 3.73688,9.0131c0,3.5178 -1.42837,6.70552 -3.73688,9.01312c-2.3076,2.30851 -5.49532,3.73688 -9.01312,3.73688c-3.51777,0 -6.70552,-1.42837 -9.0131,-3.73688c-2.30851,-2.3076 -3.7369,-5.49532 -3.7369,-9.01312c0,-3.51777 1.42839,-6.70552 3.7369,-9.0131c2.30758,-2.30853 5.49532,-3.7369 9.0131,-3.7369z" fill="url(#color-1)" stroke="none" stroke-width="3.80256" stroke-linecap="butt"/><path d="M33.35982,47.66507c2.3845,0 4.54537,0.96851 6.10995,2.53308c1.56457,1.56457 2.53308,3.72545 2.53308,6.10995c0,2.3845 -0.96851,4.54538 -2.53308,6.10995c-1.56457,1.56457 -3.72545,2.53308 -6.10995,2.53308c-2.3845,0 -4.54537,-0.96851 -6.10995,-2.53308c-1.56457,-1.56457 -2.53308,-3.72545 -2.53308,-6.10995c0,-2.3845 0.96851,-4.54537 2.53308,-6.10995c1.56457,-1.56457 3.72545,-2.53308 6.10995,-2.53308z" fill="url(#color-2)" stroke="#3e6764" stroke-width="2" stroke-linecap="butt"/></g></g></svg>