<svg version="1.1" xmlns="http://www.w3.org/2000/svg" xmlns:xlink="http://www.w3.org/1999/xlink" width="525.40146" height="335.97998" viewBox="0,0,525.40146,335.97998"><defs><radialGradient cx="493.79717" cy="80.07742" r="14.91351" gradientUnits="userSpaceOnUse" id="color-1"><stop offset="0" stop-color="#579387"/><stop offset="1" stop-color="#000000"/></radialGradient><linearGradient x1="501.0461" y1="72.82381" x2="501.0461" y2="87.90652" gradientUnits="userSpaceOnUse" id="color-2"><stop offset="0" stop-color="#97fff2"/><stop offset="1" stop-color="#ffffff"/></linearGradient></defs><g transform="translate(0.3301,-16.27741)"><g data-paper-data="{&quot;isPaintingLayer&quot;:true}" fill-rule="nonzero" stroke-linecap="butt" stroke-linejoin="miter" stroke-miterlimit="10" stroke-dasharray="" stroke-dashoffset="0" style="mix-blend-mode: normal"><path d="M0.6699,345.27566v-17.94519h89.72597v17.94519z" fill="none" stroke="#000000" stroke-width="2"/><path d="M107.34412,351.25739v-3.98782h32.89952v3.98782z" fill="none" stroke="#000000" stroke-width="2"/><path d="M158.18882,335.30611v-4.98478h27.91474v4.98478z" fill="none" stroke="#000000" stroke-width="2"/><path d="M215.01527,320.35178v-4.98478h36.88734v4.98478z" fill="none" stroke="#000000" stroke-width="2"/><path d="M262.86913,303.40354v-2.99087h35.89039v2.99087z" fill="none" stroke="#000000" stroke-width="2"/><path d="M312.71689,291.44008v-3.98782h36.88734v3.98782z" fill="none" stroke="#000000" stroke-width="2"/><path d="M355.58596,278.47966v-3.98782h36.88734v3.98782z" fill="none" stroke="#000000" stroke-width="2"/><path d="M394.46721,260.53447v-6.97869h39.87821v6.97869z" fill="none" stroke="#000000" stroke-width="2"/><path d="M349.60423,240.59537v-8.9726h29.90866v8.9726z" fill="none" stroke="#000000" stroke-width="2"/><path d="M301.75037,246.5771v-5.98173h26.91779v5.98173z" fill="none" stroke="#000000" stroke-width="2"/><path d="M255.89043,257.54361v-6.97869h32.89952v6.97869z" fill="none" stroke="#000000" stroke-width="2"/><path d="M210.03049,274.49184v-8.9726h29.90866v8.9726z" fill="none" stroke="#000000" stroke-width="2"/><path d="M163.17359,288.44921v-8.9726h27.91475v8.9726z" fill="none" stroke="#000000" stroke-width="2"/><path d="M123.29539,276.48575v-10.96651h24.92388v10.96651z" fill="none" stroke="#000000" stroke-width="2"/><path d="M90.39587,263.52533v-9.96955h19.9391v9.96955z" fill="none" stroke="#000000" stroke-width="2"/><path d="M36.56028,252.55883v-15.95128h42.86907v15.95128z" fill="none" stroke="#000000" stroke-width="2"/><path d="M92.38978,227.63495v-7.97564h32.89952v7.97564z" fill="none" stroke="#000000" stroke-width="2"/><path d="M141.24057,214.67453v-12.96042h39.87821v12.96042z" fill="none" stroke="#000000" stroke-width="2"/><path d="M190.09138,191.74456v-8.9726h45.85994v8.9726z" fill="none" stroke="#000000" stroke-width="2"/><path d="M245.92088,208.6928v-7.97564h33.89648v7.97564z" fill="none" stroke="#000000" stroke-width="2"/><path d="M310.72297,195.73238v-5.98173h31.90257v5.98173z" fill="none" stroke="#000000" stroke-width="2"/><path d="M364.55854,185.76283v-8.9726h29.90866v8.9726z" fill="none" stroke="#000000" stroke-width="2"/><path d="M410.41848,202.71107v-7.97564h48.8508v7.97564z" fill="none" stroke="#000000" stroke-width="2"/><path d="M455.28147,177.78719v-6.97869h23.92692v6.97869z" fill="none" stroke="#000000" stroke-width="2"/><path d="M421.38499,156.85113v-9.96955h25.92083v9.96955z" fill="none" stroke="#000000" stroke-width="2"/><path d="M391.47633,140.89985v-12.96042h24.92388v12.96042z" fill="none" stroke="#000000" stroke-width="2"/><path d="M353.59204,144.88767v-10.96651h17.94519v10.96651z" fill="none" stroke="#000000" stroke-width="2"/><path d="M318.69861,151.86635v-11.96346h18.94215v11.96346z" fill="none" stroke="#000000" stroke-width="2"/><path d="M279.81735,162.83286v-5.98173h24.92388v5.98173z" fill="none" stroke="#000000" stroke-width="2"/><path d="M245.92088,156.85113v-12.96042h21.93301v12.96042z" fill="none" stroke="#000000" stroke-width="2"/><path d="M215.01527,144.88767v-11.96346h18.94215v11.96346z" fill="none" stroke="#000000" stroke-width="2"/><path d="M188.09747,150.8694v-8.9726h15.95128v8.9726z" fill="none" stroke="#000000" stroke-width="2"/><path d="M136.2558,159.842v-9.96955h32.89952v9.96955z" fill="none" stroke="#000000" stroke-width="2"/><path d="M98.37151,168.81459v-13.95737h25.92083v13.95737z" fill="none" stroke="#000000" stroke-width="2"/><path d="M48.52374,179.7811v-11.96346h39.87821v11.96346z" fill="none" stroke="#000000" stroke-width="2"/><path d="M12.63336,149.87244v-15.95128h23.92692v15.95128z" fill="none" stroke="#000000" stroke-width="2"/><path d="M55.50243,132.92421v-6.97869h37.8843v6.97869z" fill="none" stroke="#000000" stroke-width="2"/><path d="M115.31975,119.96379v-3.98782h41.87212v3.98782z" fill="none" stroke="#000000" stroke-width="2"/><path d="M170.15227,102.0186v-7.97564h29.90866v7.97564z" fill="none" stroke="#000000" stroke-width="2"/><path d="M214.01831,87.06427v-10.96651h35.89039v10.96651z" fill="none" stroke="#000000" stroke-width="2"/><path d="M251.90261,109.99424v-3.98782h37.8843v3.98782z" fill="none" stroke="#000000" stroke-width="2"/><path d="M312.71687,102.0186v-5.98173h39.87821v5.98173z" fill="none" stroke="#000000" stroke-width="2"/><path d="M377.51896,78.09167v-3.98782h35.89039v3.98782z" fill="none" stroke="#000000" stroke-width="2"/><path d="M316.7047,76.09776v-9.96955h34.89343v9.96955z" fill="none" stroke="#000000" stroke-width="2"/><path d="M260.87521,63.13734v-8.9726h33.89648v8.9726z" fill="none" stroke="#000000" stroke-width="2"/><path d="M208.03658,56.15866v-7.97564h23.92692v7.97564z" fill="none" stroke="#000000" stroke-width="2"/><path d="M148.21926,63.13734v-6.97869h35.89039v6.97869z" fill="none" stroke="#000000" stroke-width="2"/><path d="M94.38369,78.09167v-6.97869h25.92083v6.97869z" fill="none" stroke="#000000" stroke-width="2"/><path d="M35.56333,87.06427v-9.96955h37.8843v9.96955z" fill="none" stroke="#000000" stroke-width="2"/><path d="M10.63945,107.00337v-10.96651h19.9391v10.96651z" fill="none" stroke="#000000" stroke-width="2"/><path d="M62.48112,42.20129v-4.98478h18.94215v4.98478z" fill="none" stroke="#000000" stroke-width="2"/><path d="M132.26798,29.24087v-11.96346h39.87821v11.96346z" fill="none" stroke="#000000" stroke-width="2"/><path d="M95.38065,28.24391v-7.97564h11.96346v7.97564z" fill="none" stroke="#000000" stroke-width="2"/><path d="M12.63336,39.21042v-12.96042h28.9117v12.96042z" fill="none" stroke="#000000" stroke-width="2"/><path d="M209.03354,26.25v-7.97564h35.89039v7.97564z" fill="none" stroke="#000000" stroke-width="2"/><path d="M293.77473,35.2226v-11.96346h31.90257v11.96346z" fill="none" stroke="#000000" stroke-width="2"/><path d="M352.59508,35.2226v-10.96651h52.83862v10.96651z" fill="none" stroke="#000000" stroke-width="2"/><path d="M424.37586,64.1343v-6.97869h27.91474v6.97869z" fill="none" stroke="#000000" stroke-width="2"/><path d="M478.21144,109.99424v-9.96955h29.90866v9.96955z" fill="none" stroke="#000000" stroke-width="2"/><path d="M522.07746,224.64408v-0.99696h1.99391v0.99696z" fill="none" stroke="#000000" stroke-width="2"/><path d="M493.57245,69.29967c-3.06941,0 -5.85081,1.2463 -7.86428,3.26058c-2.01426,2.01345 -3.26056,4.79487 -3.26056,7.86425c0,3.06941 1.2463,5.85081 3.26056,7.86428c2.01347,2.01426 4.79487,3.26056 7.86428,3.26056c3.06939,0 5.85081,-1.2463 7.86425,-3.26056c2.01426,-2.01347 3.26058,-4.79487 3.26058,-7.86428c0,-3.06939 -1.24632,-5.85081 -3.26058,-7.86425c-2.01345,-2.01428 -4.79487,-3.26058 -7.86425,-3.26058z" fill="url(#color-1)" stroke="none" stroke-width="3.80256"/><path d="M493.50474,72.82381c-2.08056,0 -3.966,0.84506 -5.33115,2.21021c-1.36515,1.36515 -2.21021,3.25059 -2.21021,5.33115c0,2.08056 0.84506,3.966 2.21021,5.33115c1.36515,1.36515 3.25059,2.21021 5.33115,2.21021c2.08056,0 3.966,-0.84506 5.33115,-2.21021c1.36515,-1.36515 2.21021,-3.25059 2.21021,-5.33115c0,-2.08056 -0.84506,-3.966 -2.21021,-5.33115c-1.36515,-1.36515 -3.25059,-2.21021 -5.33115,-2.21021z" fill="url(#color-2)" stroke="#3e6764" stroke-width="2"/></g></g></svg>