<svg version="1.1" xmlns="http://www.w3.org/2000/svg" xmlns:xlink="http://www.w3.org/1999/xlink" width="86.24041" height="90.81643" viewBox="0,0,86.24041,90.81643"><defs><linearGradient x1="240.00001" y1="164.21072" x2="240.00001" y2="195.78928" gradientUnits="userSpaceOnUse" id="color-1"><stop offset="0" stop-color="#444444"/><stop offset="1" stop-color="#000000"/></linearGradient><linearGradient x1="243.85808" y1="171.37273" x2="243.85808" y2="183.36907" gradientUnits="userSpaceOnUse" id="color-2"><stop offset="0" stop-color="#2f302e"/><stop offset="1" stop-color="#171716"/></linearGradient></defs><g transform="translate(-196.87979,-134.59178)"><g data-paper-data="{&quot;isPaintingLayer&quot;:true}" stroke="none" stroke-miterlimit="10" stroke-dasharray="" stroke-dashoffset="0" style="mix-blend-mode: normal"><path d="M230.83224,164.21072h18.33558c3.85062,0 6.97197,3.02447 6.97197,6.75559v18.06738c0,3.73084 -3.12134,6.75559 -6.97197,6.75559h-18.33558c-3.85053,0 -6.97203,-3.02476 -6.97203,-6.75559v-18.06738c0,-3.73111 3.1215,-6.75559 6.97203,-6.75559z" fill="url(#color-1)" fill-rule="evenodd" stroke-width="14" stroke-linecap="round" stroke-linejoin="round"/><path d="M228.77762,180c0,-6.19795 5.02443,-11.22238 11.22238,-11.22238c6.19795,0 11.22238,5.02443 11.22238,11.22238c0,6.19795 -5.02443,11.22238 -11.22238,11.22238c-6.19795,0 -11.22238,-5.02443 -11.22238,-11.22238z" fill="#ffffff" fill-rule="nonzero" stroke-width="0" stroke-linecap="butt" stroke-linejoin="miter"/><path d="M237.8599,177.3709c0,-3.3127 2.68547,-5.99817 5.99817,-5.99817c3.3127,0 5.99817,2.68547 5.99817,5.99817c0,3.3127 -2.68547,5.99817 -5.99817,5.99817c-3.3127,0 -5.99817,-2.68547 -5.99817,-5.99817z" fill="url(#color-2)" fill-rule="nonzero" stroke-width="0" stroke-linecap="butt" stroke-linejoin="miter"/><path d="M243.77213,175.52566c0,-1.30778 1.06017,-2.36796 2.36796,-2.36796c1.30778,0 2.36796,1.06018 2.36796,2.36796c0,1.30778 -1.06018,2.36796 -2.36796,2.36796c-1.30778,0 -2.36796,-1.06017 -2.36796,-2.36796z" fill="#ffffff" fill-rule="nonzero" stroke-width="0" stroke-linecap="butt" stroke-linejoin="miter"/><path d="M196.8798,225.40822v-90.81643h86.24041v90.81643z" fill="none" fill-rule="nonzero" stroke-width="0" stroke-linecap="butt" stroke-linejoin="miter"/><path d="M196.8798,225.40822v-90.81643h86.24041v90.81643z" fill="none" fill-rule="nonzero" stroke-width="0" stroke-linecap="butt" stroke-linejoin="miter"/></g></g></svg>