<svg version="1.1" xmlns="http://www.w3.org/2000/svg" xmlns:xlink="http://www.w3.org/1999/xlink" width="35" height="35" viewBox="0,0,35,35"><g transform="translate(-223.38833,-49.35837)"><g data-paper-data="{&quot;isPaintingLayer&quot;:true}" fill-rule="nonzero" stroke="none" stroke-linecap="butt" stroke-linejoin="miter" stroke-miterlimit="10" stroke-dasharray="" stroke-dashoffset="0" style="mix-blend-mode: normal"><path d="M258.38833,66.85837c0,9.66499 -7.83501,17.5 -17.5,17.5c-9.66499,0 -17.5,-7.83501 -17.5,-17.5c0,-9.66499 7.83501,-17.5 17.5,-17.5c9.66499,0 17.5,7.83501 17.5,17.5z" fill="#fffe00" stroke-width="0"/><path d="M246.76333,76.98335c-1.5,0 -1.5,-1.5 -1.5,-1.5c0,-1 0,-2.5 0,-3.5c0.01874,-2.20806 0.66319,-4.1497 0.50377,-6.39367c-0.03883,-0.54662 -0.15901,-1.08441 -0.23613,-1.62695c-0.01576,-0.11091 -0.04347,-0.24824 -0.07382,-0.39679c-0.13959,0.24365 -0.28571,0.47559 -0.38553,0.65115c-1.1841,2.08251 -2.76201,6.40004 -5.90292,6.22614c-0.95838,-0.05306 -1.21692,-1.48885 -1.74701,-2.28905c-1.25192,-1.88985 -2.54706,-3.66076 -3.97254,-5.40939c-0.51795,4.21967 -0.53179,9.02511 0.0491,13.02643l0.01508,0.71213c0,0 0,1.5 -1.5,1.5c-1.5,0 -1.5,-1.5 -1.5,-1.5l0.01508,-0.28787c-0.70137,-4.98122 -0.55793,-10.98382 0.25533,-15.95873c0,0 0.2466,-1.47959 1.72619,-1.23299c0.14038,0.0234 0.26523,0.05789 0.37622,0.10117c0.9823,-0.51217 1.76607,0.40223 1.76607,0.40223c1.53828,1.795 3.35024,3.66612 4.62462,5.66776c0.32852,0.516 0.68121,1.04382 0.82814,1.63761c0.06026,0.24353 -0.41321,0.89888 -0.24701,0.71095c1.52034,-1.71913 1.80533,-4.75904 3.43851,-6.41719c0.75131,-0.76281 1.55142,-1.99149 2.61467,-1.86563c1.09829,0.13 1.67375,1.49535 2.24709,2.44109c1.75317,2.89193 0.07136,7.29427 0.10511,10.30161c0,1 0,2 0,3v0.5c0,0 0,1.5 -1.5,1.5z" fill="#ff9c00" stroke-width="0.5"/></g></g></svg>